<svg xmlns="http://www.w3.org/2000/svg" width="30" height="30" viewBox="0 0 30 30">
  <path id="Icon_awesome-bus" data-name="Icon awesome-bus" d="M14.3,3.75h-.234V2.344C14.063,1.031,11.156,0,7.5,0S.938,1.031.938,2.344V3.75H.7a.7.7,0,0,0-.7.7V6.8a.7.7,0,0,0,.7.7H.938v4.688a.938.938,0,0,0,.938.938v.938A.938.938,0,0,0,2.813,15H3.75a.938.938,0,0,0,.937-.937v-.937h5.625v.938A.938.938,0,0,0,11.25,15h.938a.938.938,0,0,0,.938-.937v-.937h.188a.739.739,0,0,0,.75-.75V7.5H14.3a.7.7,0,0,0,.7-.7V4.453A.7.7,0,0,0,14.3,3.75ZM3.281,11.719a.938.938,0,1,1,.937-.937A.938.938,0,0,1,3.281,11.719ZM3.75,8.438A.938.938,0,0,1,2.813,7.5V3.75a.938.938,0,0,1,.938-.938h7.5a.938.938,0,0,1,.938.938V7.5a.938.938,0,0,1-.938.937Zm7.969,3.281a.938.938,0,1,1,.938-.937A.938.938,0,0,1,11.719,11.719Z" transform="translate(7.214 7.711)"/>
  <rect id="Rectangle_1" data-name="Rectangle 1" width="30" height="30" fill="none"/>
</svg>
