<svg xmlns="http://www.w3.org/2000/svg" xmlns:xlink="http://www.w3.org/1999/xlink" width="148" height="68" viewBox="0 0 148 68">
  <defs>
    <clipPath id="clip-path">
      <rect id="Rectangle_2" data-name="Rectangle 2" width="148" height="68" transform="translate(365 170)" fill="#fff" stroke="#707070" stroke-width="1"/>
    </clipPath>
    <linearGradient id="linear-gradient" x1="0.899" y1="0.458" x2="1.448" y2="0.298" gradientUnits="objectBoundingBox">
      <stop offset="0" stop-color="#fff"/>
      <stop offset="0.15" stop-color="#fff" stop-opacity="0.988"/>
      <stop offset="0.27" stop-color="#fff" stop-opacity="0.949"/>
      <stop offset="0.38" stop-color="#fff" stop-opacity="0.89"/>
      <stop offset="0.47" stop-color="#fff" stop-opacity="0.788"/>
      <stop offset="0.57" stop-color="#fff" stop-opacity="0.678"/>
      <stop offset="0.66" stop-color="#fff" stop-opacity="0.529"/>
      <stop offset="0.74" stop-color="#fff" stop-opacity="0.361"/>
      <stop offset="0.83" stop-color="#fff" stop-opacity="0.169"/>
      <stop offset="0.89" stop-color="#fff" stop-opacity="0"/>
    </linearGradient>
  </defs>
  <g id="Mask_Group_1" data-name="Mask Group 1" transform="translate(-365 -170)" clip-path="url(#clip-path)">
    <g id="TransDev_Logo" data-name="TransDev Logo" transform="translate(365 182.035)">
      <path id="Path_2" data-name="Path 2" d="M180.925,18.019a24.455,24.455,0,0,1-4.269,10.16h-.106l-4.516-10.16h-3l2.47,5.5c-.953,2.434-3.457,5.856-7.55,5.856-2.434,0-3.845-1.164-4.163-3.14a12.061,12.061,0,0,0,2.963.282c2.681,0,5.751-1.27,5.751-4.763,0-2.681-2.046-4.163-4.763-4.163-4.128,0-6.95,2.611-6.95,7.2a8.017,8.017,0,0,0,.882,3.951,3.1,3.1,0,0,1-1.905.635c-.917,0-1.517-.247-1.517-1.693V13.644h-2.822V18.16a7.282,7.282,0,0,0-2.858-.6c-4.833,0-7.126,3.175-7.126,7.373,0,4.057,2.081,6.95,6.174,6.95a5.45,5.45,0,0,0,4.339-1.693c.635,1.235,1.87,1.693,3.457,1.693a7.852,7.852,0,0,0,4.057-1.164,7.936,7.936,0,0,0,4.445,1.164,9.781,9.781,0,0,0,8.855-5.68l2.47,5.327h1.94a31.334,31.334,0,0,0,6.562-13.547ZM147.8,29.344c-2.258,0-3.387-1.976-3.387-4.339,0-3.034,1.235-4.8,4.128-4.8a5.96,5.96,0,0,1,2.928.67V27.9A4.71,4.71,0,0,1,147.8,29.344Zm15.84-9.455c1.482,0,2.187.67,2.187,1.905,0,2.046-1.552,2.47-3.457,2.47a7.5,7.5,0,0,1-2.646-.353A3.805,3.805,0,0,1,163.639,19.889Z" transform="translate(-35.792 -3.442)" fill="#fff"/>
      <path id="Path_3" data-name="Path 3" d="M79.248,18.2a8.043,8.043,0,0,0-5.5,1.588v8.573a5.4,5.4,0,0,1-3.387,1.305,3.55,3.55,0,0,1-3.669-3.034,5.979,5.979,0,0,1-.141-1.341h0V21.162h4.516v-2.47h-4.48v-4.2H63.866v4.163H60.62v2.47h3.246v4.057h0a9.967,9.967,0,0,0,.176,1.764A6.213,6.213,0,0,0,70.358,32.1h0A6.771,6.771,0,0,0,74.027,31v.741h2.5V21.479a5.4,5.4,0,0,1,2.681-.67,4.889,4.889,0,0,1,1.87.353l1.164-2.4A9.8,9.8,0,0,0,79.248,18.2Z" transform="translate(-15.363 -3.657)" fill="#fff"/>
      <path id="Path_4" data-name="Path 4" d="M127.14,29.118c0-2.752-2.011-3.422-3.81-3.845-1.517-.353-3.563-.423-3.563-1.729s1.411-1.764,2.258-1.764a7.289,7.289,0,0,1,3.7,1.023l1.058-2.117a10.449,10.449,0,0,0-4.692-1.235c-2.293,0-4.939,1.27-4.939,4.092s2.081,3.316,4.41,3.775c1.411.282,2.575.635,2.681,1.835h0s.282,1.835-3.034,1.835h-3.528c-2.081,0-2.152-.917-2.152-2.152V24.567c0-3.916-2.963-4.939-5.468-4.939a10.718,10.718,0,0,0-5.574,1.482V30.6c0,.282-.917.459-1.376.459s-1.446-.318-1.446-.917v-9.1l-.529-.318a11.981,11.981,0,0,0-5.186-1.164,6.62,6.62,0,0,0-5.645,2.575A7.636,7.636,0,0,0,89.215,28.2a6.353,6.353,0,0,0,6.421,5.186h.035a5.823,5.823,0,0,0,3.951-1.446,4.747,4.747,0,0,0,3.669,1.446,6.553,6.553,0,0,0,4.057-1.446V22.591a6.538,6.538,0,0,1,2.963-.564c1.729,0,2.717.529,2.717,2.963h0v4.128c0,1.693.282,4.128,4.3,4.128h4.551c3.069,0,4.375-1.411,4.9-2.611a3.434,3.434,0,0,0,.353-1.517Zm-28.153.423A4.994,4.994,0,0,1,95.6,30.882a3.622,3.622,0,0,1-3.634-3.069,5.086,5.086,0,0,1,.811-4.339,4.173,4.173,0,0,1,3.387-1.446h0a9.641,9.641,0,0,1,2.822.459v7.056Z" transform="translate(-22.543 -4.91)" fill="#fff"/>
      <path id="Path_5" data-name="Path 5" d="M42.662,5.36a2.858,2.858,0,1,0-3.881-1.129A2.847,2.847,0,0,0,42.662,5.36Z" transform="translate(-9.752 0.009)" fill="#fff"/>
      <path id="Path_6" data-name="Path 6" d="M48.522,9.252c-.071-.459-.564-.811-1.623-.67-6.774.847-10.619,1.446-24.413,2.963-1.129.106-2.081.282-2.187,1.058-.176,1.235,3.034,1.341,5.292,1.87a15.886,15.886,0,0,1,3.316,1.094.747.747,0,0,1,.459.953.569.569,0,0,1-.141.247c-2.611,3.81-6.139,9.173-7.162,11.148-.988,1.94.67,2.893,2.328,1.446,3.881-3.457,5.08-5.01,8.573-7.726.459-.388.847-.282.988.282.071.318.141.706.212,1.2a10.611,10.611,0,0,1,0,2.117V25.3a4.958,4.958,0,0,1-.071.635,18.227,18.227,0,0,1-5.468,10.478,16.622,16.622,0,0,0,6.633-4.3h.035a14.669,14.669,0,0,0,1.129-1.376,16.872,16.872,0,0,0,3.034-7.232c.106-.6.212-1.235.282-1.835.529-5.609,2.858-7.62,7.691-10.619A1.972,1.972,0,0,0,48.522,9.252Z" transform="translate(-5.17 -2.155)" fill="#fff"/>
      <path id="Path_7" data-name="Path 7" d="M27.073,27.992a11.073,11.073,0,0,1-4.869,3.74,13.781,13.781,0,0,1-7.268.6c-.459-.071-.953-.212-1.376-.318A14.82,14.82,0,0,1,20.194,3.155h0A1.363,1.363,0,0,0,20.688.474h0A17.544,17.544,0,0,0,13.35,34.766c.388.106.776.176,1.164.247a17.738,17.738,0,0,0,9-.706,18.227,18.227,0,0,0,5.468-10.478c.035-.247.035-.459.071-.635A10.311,10.311,0,0,1,27.073,27.992Z" transform="translate(-0.055 -0.044)" fill="url(#linear-gradient)"/>
      <path id="Path_8" data-name="Path 8" d="M64.492,49.51H65.2V48.345h1.27V49.51h1.341v1.058H66.468v1.905c0,.529.247.706.635.706a1.632,1.632,0,0,0,.882-.282v1.164a2.371,2.371,0,0,1-1.2.247,1.4,1.4,0,0,1-1.552-1.517V50.568h-.706V49.51Z" transform="translate(-16.341 -12.213)" fill="#fff"/>
      <path id="Path_9" data-name="Path 9" d="M70.724,46.6h1.27v2.575a3.387,3.387,0,0,1,1.164-.212,1.647,1.647,0,0,1,1.835,1.87V53.8h-1.27V50.938a.746.746,0,0,0-.635-.811h-.176a2.436,2.436,0,0,0-.882.141V53.8h-1.27Z" transform="translate(-17.917 -11.771)" fill="#fff"/>
      <path id="Path_10" data-name="Path 10" d="M79.182,52.6h0a1.308,1.308,0,0,0,1.376,1.023,3.148,3.148,0,0,0,1.588-.423v1.094a2.893,2.893,0,0,1-1.693.423,2.455,2.455,0,0,1-.212-4.9c1.482,0,2.046.988,2.046,2.223v.6Zm1.94-.776c0-.564-.282-.988-.882-.988a1.038,1.038,0,0,0-1.023.988Z" transform="translate(-19.742 -12.583)" fill="#fff"/>
      <path id="Path_11" data-name="Path 11" d="M94.156,51.618c0-.494-.212-.741-.706-.741a2.456,2.456,0,0,0-.882.176,1.127,1.127,0,0,1,.106.494v3.034H91.4V51.618a.644.644,0,0,0-.706-.741,3.2,3.2,0,0,0-.811.106v3.563h-1.27v-4.41a7.057,7.057,0,0,1,2.117-.423,1.966,1.966,0,0,1,1.305.388,4.2,4.2,0,0,1,1.588-.388c1.129,0,1.835.423,1.835,1.8v3h-1.27Z" transform="translate(-22.439 -12.557)" fill="#fff"/>
      <path id="Path_12" data-name="Path 12" d="M101.757,49.762a2.47,2.47,0,1,1-2.47,2.47,2.4,2.4,0,0,1,2.293-2.47Zm0,1.094a1.24,1.24,0,0,0-1.2,1.376,1.211,1.211,0,1,0,2.4,0,1.261,1.261,0,0,0-1.2-1.376Z" transform="translate(-25.136 -12.571)" fill="#fff"/>
      <path id="Path_13" data-name="Path 13" d="M107.455,46.6h1.27v2.611a2.35,2.35,0,0,1,3.387,1.87v.247a2.472,2.472,0,0,1-2.787,2.575,4.889,4.889,0,0,1-1.87-.353Zm1.27,6.1a2.054,2.054,0,0,0,.67.106,1.316,1.316,0,0,0,1.446-1.2v-.247a1.184,1.184,0,0,0-1.129-1.235h-.106a1.406,1.406,0,0,0-.847.247V52.7Z" transform="translate(-27.2 -11.771)" fill="#fff"/>
      <path id="Path_14" data-name="Path 14" d="M115.056,47.752a.759.759,0,1,1,.776.741h0A.8.8,0,0,1,115.056,47.752Zm1.411,6.139H115.2V49.163h1.27Z" transform="translate(-29.121 -11.867)" fill="#fff"/>
      <path id="Path_15" data-name="Path 15" d="M120.2,53.8h-1.27V46.6h1.27Z" transform="translate(-30.1 -11.771)" fill="#fff"/>
      <path id="Path_16" data-name="Path 16" d="M122.421,47.751a.753.753,0,0,1,.741-.776h.035a.76.76,0,1,1,.106,1.517H123.2a.753.753,0,0,1-.776-.741Zm1.411,6.139h-1.27V49.163h1.27Z" transform="translate(-30.983 -11.866)" fill="#fff"/>
      <path id="Path_17" data-name="Path 17" d="M125.537,49.51h.706V48.345h1.27V49.51h1.341v1.058h-1.341v1.905c0,.529.247.706.635.706a1.632,1.632,0,0,0,.882-.282v1.164a2.371,2.371,0,0,1-1.2.247,1.4,1.4,0,0,1-1.552-1.517V50.568h-.706V49.51Z" transform="translate(-31.77 -12.213)" fill="#fff"/>
      <path id="Path_18" data-name="Path 18" d="M133.589,53.278l1.2-3.387h1.341l-2.575,6.6h-1.27l.67-1.764-1.94-4.869h1.376Z" transform="translate(-33.155 -12.595)" fill="#fff"/>
      <path id="Path_19" data-name="Path 19" d="M145.587,51.326a1.916,1.916,0,0,0-1.2-.423,1.282,1.282,0,0,0-1.341,1.164v.176a1.3,1.3,0,0,0,1.235,1.341h.176a1.916,1.916,0,0,0,1.2-.423v1.2a2.668,2.668,0,0,1-1.376.353,2.334,2.334,0,0,1-2.5-2.434,2.366,2.366,0,0,1,2.258-2.47h.212a2.543,2.543,0,0,1,1.341.353Z" transform="translate(-35.874 -12.583)" fill="#fff"/>
      <path id="Path_20" data-name="Path 20" d="M150.621,49.762a2.47,2.47,0,1,1-2.47,2.47,2.4,2.4,0,0,1,2.293-2.47Zm0,1.094a1.241,1.241,0,0,0-1.2,1.376,1.211,1.211,0,1,0,2.4,0,1.261,1.261,0,0,0-1.2-1.376Z" transform="translate(-37.486 -12.571)" fill="#fff"/>
      <path id="Path_21" data-name="Path 21" d="M161.906,51.618c0-.494-.212-.741-.706-.741a2.456,2.456,0,0,0-.882.176,1.127,1.127,0,0,1,.106.494v3.034h-1.305V51.618a.644.644,0,0,0-.706-.741,2.751,2.751,0,0,0-.776.106v3.563h-1.27v-4.41a7.057,7.057,0,0,1,2.117-.423,1.966,1.966,0,0,1,1.305.388,4.2,4.2,0,0,1,1.588-.388c1.129,0,1.835.423,1.835,1.8v3h-1.27Z" transform="translate(-39.563 -12.557)" fill="#fff"/>
      <path id="Path_22" data-name="Path 22" d="M167.414,50.2a5.848,5.848,0,0,1,2.046-.388,2.3,2.3,0,0,1,2.575,2.364,2.357,2.357,0,0,1-2.611,2.54,2.686,2.686,0,0,1-.741-.106v1.905h-1.27V50.2Zm1.27,3.316a2.054,2.054,0,0,0,.67.106,1.281,1.281,0,0,0,1.411-1.411,1.192,1.192,0,0,0-1.129-1.27h-.212a2.507,2.507,0,0,0-.741.106Z" transform="translate(-42.355 -12.583)" fill="#fff"/>
      <path id="Path_23" data-name="Path 23" d="M177.426,51.49c0-.459-.388-.635-.847-.635a2.7,2.7,0,0,0-1.376.388V50.15a3.517,3.517,0,0,1,1.588-.388c1.058,0,1.87.423,1.87,1.693v3.034a9.646,9.646,0,0,1-1.764.176c-1.2,0-2.117-.353-2.117-1.446,0-.988.811-1.446,2.117-1.446h.529Zm0,1.094H177c-.6,0-.953.176-.953.564s.318.564.847.564a2.67,2.67,0,0,0,.529-.035Z" transform="translate(-44.216 -12.571)" fill="#fff"/>
      <path id="Path_24" data-name="Path 24" d="M181.909,50.185a8,8,0,0,1,2.258-.423c1.235,0,2.011.459,2.011,1.87v2.963h-1.27V51.737a.746.746,0,0,0-.635-.811H184.1a2.436,2.436,0,0,0-.882.141v3.528h-1.27v-4.41Z" transform="translate(-46.018 -12.571)" fill="#fff"/>
      <path id="Path_25" data-name="Path 25" d="M191.094,53.278l1.2-3.387h1.341l-2.575,6.6h-1.27l.67-1.764-1.94-4.869h1.376Z" transform="translate(-47.689 -12.595)" fill="#fff"/>
    </g>
  </g>
</svg>
