<svg xmlns="http://www.w3.org/2000/svg" xmlns:xlink="http://www.w3.org/1999/xlink" width="43.366" height="35.249" viewBox="0 0 43.366 35.249">
  <defs>
    <linearGradient id="linear-gradient" x1="0.899" y1="0.458" x2="1.448" y2="0.298" gradientUnits="objectBoundingBox">
      <stop offset="0" stop-color="#fff"/>
      <stop offset="0.15" stop-color="#fff" stop-opacity="0.988"/>
      <stop offset="0.27" stop-color="#fff" stop-opacity="0.949"/>
      <stop offset="0.38" stop-color="#fff" stop-opacity="0.89"/>
      <stop offset="0.47" stop-color="#fff" stop-opacity="0.788"/>
      <stop offset="0.57" stop-color="#fff" stop-opacity="0.678"/>
      <stop offset="0.66" stop-color="#fff" stop-opacity="0.529"/>
      <stop offset="0.74" stop-color="#fff" stop-opacity="0.361"/>
      <stop offset="0.83" stop-color="#fff" stop-opacity="0.169"/>
      <stop offset="0.89" stop-color="#fff" stop-opacity="0"/>
    </linearGradient>
  </defs>
  <path id="Path_67" data-name="Path 67" d="M42.662,5.36a2.858,2.858,0,1,0-3.881-1.129A2.847,2.847,0,0,0,42.662,5.36Z" transform="translate(-9.752 0.009)" fill="#fff"/>
  <path id="Path_68" data-name="Path 68" d="M48.522,9.252c-.071-.459-.564-.811-1.623-.67-6.774.847-10.619,1.446-24.413,2.963-1.129.106-2.081.282-2.187,1.058-.176,1.235,3.034,1.341,5.292,1.87a15.886,15.886,0,0,1,3.316,1.094.747.747,0,0,1,.459.953.569.569,0,0,1-.141.247c-2.611,3.81-6.139,9.173-7.162,11.148-.988,1.94.67,2.893,2.328,1.446,3.881-3.457,5.08-5.01,8.573-7.726.459-.388.847-.282.988.282.071.318.141.706.212,1.2a10.611,10.611,0,0,1,0,2.117V25.3a4.958,4.958,0,0,1-.071.635,18.227,18.227,0,0,1-5.468,10.478,16.622,16.622,0,0,0,6.633-4.3h.035a14.669,14.669,0,0,0,1.129-1.376,16.872,16.872,0,0,0,3.034-7.232c.106-.6.212-1.235.282-1.835.529-5.609,2.858-7.62,7.691-10.619A1.972,1.972,0,0,0,48.522,9.252Z" transform="translate(-5.17 -2.155)" fill="#fff"/>
  <path id="Path_69" data-name="Path 69" d="M27.073,27.992a11.073,11.073,0,0,1-4.869,3.74,13.781,13.781,0,0,1-7.268.6c-.459-.071-.953-.212-1.376-.318A14.82,14.82,0,0,1,20.194,3.155h0A1.363,1.363,0,0,0,20.688.474h0A17.544,17.544,0,0,0,13.35,34.766c.388.106.776.176,1.164.247a17.738,17.738,0,0,0,9-.706,18.227,18.227,0,0,0,5.468-10.478c.035-.247.035-.459.071-.635A10.311,10.311,0,0,1,27.073,27.992Z" transform="translate(-0.055 -0.044)" fill="url(#linear-gradient)"/>
</svg>
